<mxfile host="app.diagrams.net" modified="2024-07-17T02:08:32.241Z" agent="Mozilla/5.0 (X11; Linux x86_64) AppleWebKit/537.36 (KHTML, like Gecko) Chrome/126.0.0.0 Safari/537.36" version="24.7.0" etag="D7A5LV013XByr140Sqgn" type="github">
  <diagram name="第 1 页" id="2BU3AcCCbTSWtIDU_5kh">
    <mxGraphModel>
      <root>
        <mxCell id="0" />
        <mxCell id="1" parent="0" />
      </root>
    </mxGraphModel>
  </diagram>
</mxfile>
